<?xml version="1.0" encoding="UTF-8" standalone="no"?>
<svg
   xmlns:dc="http://purl.org/dc/elements/1.1/"
   xmlns:cc="http://creativecommons.org/ns#"
   xmlns:rdf="http://www.w3.org/1999/02/22-rdf-syntax-ns#"
   xmlns:svg="http://www.w3.org/2000/svg"
   xmlns="http://www.w3.org/2000/svg"
   xmlns:sodipodi="http://sodipodi.sourceforge.net/DTD/sodipodi-0.dtd"
   xmlns:inkscape="http://www.inkscape.org/namespaces/inkscape"
   version="1.1"
   id="canvas"
   x="0px"
   y="0px"
   viewBox="0 0 166.4 35"
   xml:space="preserve"
   sodipodi:docname="sititou70.svg"
   width="166.39999"
   height="35"
   inkscape:version="0.92.5 (2060ec1f9f, 2020-04-08)"><metadata
   id="metadata3934"><rdf:RDF><cc:Work
       rdf:about=""><dc:format>image/svg+xml</dc:format><dc:type
         rdf:resource="http://purl.org/dc/dcmitype/StillImage" /><dc:title></dc:title></cc:Work></rdf:RDF></metadata><defs
   id="defs3932" /><sodipodi:namedview
   pagecolor="#ffffff"
   bordercolor="#666666"
   borderopacity="1"
   objecttolerance="10"
   gridtolerance="10"
   guidetolerance="10"
   inkscape:pageopacity="0"
   inkscape:pageshadow="2"
   inkscape:window-width="1920"
   inkscape:window-height="1043"
   id="namedview3930"
   showgrid="true"
   inkscape:zoom="3.6513267"
   inkscape:cx="54.821359"
   inkscape:cy="15.866741"
   inkscape:window-x="1600"
   inkscape:window-y="0"
   inkscape:window-maximized="1"
   inkscape:current-layer="text3963"><inkscape:grid
     type="xygrid"
     id="grid3959" /></sodipodi:namedview>

<g
   aria-label="sititou70"
   style="font-style:normal;font-variant:normal;font-weight:bold;font-stretch:normal;font-size:40px;line-height:1.25;font-family:Cica;-inkscape-font-specification:'Cica Bold';letter-spacing:0px;word-spacing:0px;fill-opacity:1;stroke:none"
   id="text3938"><g
     aria-label="sititou70"
     style="font-style:normal;font-variant:normal;font-weight:bold;font-stretch:normal;font-size:40px;line-height:1.25;font-family:'Noto Serif CJK JP';-inkscape-font-specification:'Noto Serif CJK JP Bold';letter-spacing:0px;word-spacing:0px;fill-opacity:1;stroke:none"
     id="text3963"><path
       d="m 10.513752,19.939278 c -2.8746667,-0.933333 -3.696,-1.941333 -3.696,-3.509333 0,-1.829334 1.4186667,-3.024 3.882667,-3.024 1.082666,0 1.941333,0.224 2.837333,0.672 l 1.157333,4.032 h 1.904 l 0.261333,-4.48 c -2.053333,-1.082667 -3.882666,-1.68 -6.271999,-1.68 -5.1146669,0 -7.9146668,2.762666 -7.9146668,6.346666 0,3.024 1.9786666,4.816 5.1893331,5.824 l 2.0533333,0.672 c 2.9119994,0.970667 3.7706664,2.016 3.7706664,3.658667 0,2.053333 -1.568,3.210666 -4.5546664,3.210666 -1.2319999,0 -2.2773332,-0.186666 -3.2479999,-0.597333 L 4.8390854,26.547278 H 2.6737522 l -0.1493334,4.853333 c 2.128,1.12 4.2186666,1.717333 6.9066665,1.717333 5.4879997,0 8.5493327,-2.613333 8.5493327,-6.421333 0,-2.874667 -1.605333,-4.853333 -5.525333,-6.16 z"
       style="font-size:37.33333206px"
       id="path3965"
       inkscape:connector-curvature="0" /><path
       d="m 25.932409,7.805945 c 1.605333,0 2.949333,-1.1573333 2.949333,-2.7626666 0,-1.6799999 -1.344,-2.7999999 -2.949333,-2.7999999 -1.605333,0 -2.949333,1.12 -2.949333,2.7999999 0,1.6053333 1.344,2.7626666 2.949333,2.7626666 z m 2.650667,23.258666 c -0.03733,-2.128 -0.07467,-5.264 -0.07467,-7.317333 v -5.6 l 0.07467,-5.824 -0.522667,-0.336 -7.578666,2.128 v 1.008 l 3.023999,0.298667 c 0.07467,1.866666 0.112,3.285333 0.112,5.674666 v 2.650667 c 0,2.053333 -0.03733,5.152 -0.07467,7.28 l -2.725333,0.336 v 1.157333 h 10.266666 v -1.157333 z"
       style="font-size:37.33333206px"
       id="path3967"
       inkscape:connector-curvature="0" /><path
       d="m 45.980361,29.757944 c -1.008,0.746667 -1.68,1.12 -2.650666,1.12 -1.493334,0 -2.426667,-0.858666 -2.426667,-2.949333 V 14.115278 h 4.965333 v -1.568 h -4.927999 l 0.112,-5.8986663 h -3.210667 l -1.605333,5.8613333 -3.472,0.373333 v 1.232 h 3.210666 v 9.781333 c 0,1.493333 -0.03733,2.538667 -0.03733,3.733333 0,3.808 1.904,5.488 5.338667,5.488 2.538666,0 4.293333,-0.970667 5.375999,-2.650666 z"
       style="font-size:37.33333206px"
       id="path3969"
       inkscape:connector-curvature="0" /><path
       d="m 53.260351,7.805945 c 1.605333,0 2.949333,-1.1573333 2.949333,-2.7626666 0,-1.6799999 -1.344,-2.7999999 -2.949333,-2.7999999 -1.605333,0 -2.949333,1.12 -2.949333,2.7999999 0,1.6053333 1.344,2.7626666 2.949333,2.7626666 z m 2.650666,23.258666 c -0.03733,-2.128 -0.07467,-5.264 -0.07467,-7.317333 v -5.6 l 0.07467,-5.824 -0.522666,-0.336 -7.578667,2.128 v 1.008 l 3.024,0.298667 c 0.07467,1.866666 0.112,3.285333 0.112,5.674666 v 2.650667 c 0,2.053333 -0.03733,5.152 -0.07467,7.28 l -2.725334,0.336 v 1.157333 h 10.266667 v -1.157333 z"
       style="font-size:37.33333206px"
       id="path3971"
       inkscape:connector-curvature="0" /><path
       d="m 73.308303,29.757944 c -1.008,0.746667 -1.68,1.12 -2.650666,1.12 -1.493334,0 -2.426667,-0.858666 -2.426667,-2.949333 V 14.115278 h 4.965333 v -1.568 h -4.928 l 0.112,-5.8986663 h -3.210666 l -1.605333,5.8613333 -3.472,0.373333 v 1.232 h 3.210666 v 9.781333 c 0,1.493333 -0.03733,2.538667 -0.03733,3.733333 0,3.808 1.904,5.488 5.338666,5.488 2.538667,0 4.293334,-0.970667 5.376,-2.650666 z"
       style="font-size:37.33333206px"
       id="path3973"
       inkscape:connector-curvature="0" /><path
       d="m 85.628293,33.117944 c 5.711999,0 10.079999,-3.92 10.079999,-10.64 0,-6.719999 -4.666666,-10.527999 -10.079999,-10.527999 -5.450667,0 -10.08,3.845333 -10.08,10.527999 0,6.682667 4.293333,10.64 10.08,10.64 z m 0,-1.381333 c -3.098667,0 -4.816,-3.024 -4.816,-9.221333 0,-6.16 1.717333,-9.184 4.816,-9.184 3.024,0 4.815999,3.024 4.815999,9.184 0,6.197333 -1.791999,9.221333 -4.815999,9.221333 z"
       style="font-size:37.33333206px"
       id="path3975"
       inkscape:connector-curvature="0" /><path
       d="M 118.44422,31.139278 V 18.557945 l 0.112,-5.973334 -0.41066,-0.410666 -7.20534,1.045333 v 0.970667 l 2.65067,0.485333 -0.0747,13.290666 c -1.38133,1.381334 -2.94933,2.202667 -4.62933,2.202667 -2.05333,0 -3.21067,-1.082667 -3.21067,-4.368 v -7.242666 l 0.224,-5.973334 -0.41066,-0.410666 -7.392004,0.970666 v 1.045334 l 2.800004,0.522666 -0.14934,10.826667 c -0.0747,5.6 2.16534,7.578666 5.74934,7.578666 2.76266,0 5.264,-1.642666 7.056,-3.92 l 0.26133,3.733333 7.168,-0.410666 v -1.12 z"
       style="font-size:37.33333206px"
       id="path3977"
       inkscape:connector-curvature="0" /><path
       d="m 124.30552,5.901945 v 3.9573332 h 14.97066 l -12.096,22.2879988 0.37334,0.373334 h 4.592 L 141.66551,8.4032783 V 5.901945 Z"
       style="font-size:37.33333206px"
       id="path3979"
       inkscape:connector-curvature="0" /><path
       d="m 150.43883,19.267278 c 0,-9.9306664 2.09067,-12.6186663 4.48,-12.6186663 2.31467,0 4.44267,2.7253332 4.44267,12.6186663 0,9.781333 -2.128,12.469333 -4.44267,12.469333 -2.38933,0 -4.48,-2.688 -4.48,-12.469333 z m 4.48,-13.9626663 c -4.85333,0 -9.22133,4.0693332 -9.22133,13.9626663 0,9.781333 4.368,13.850666 9.22133,13.850666 4.77867,0 9.22134,-4.069333 9.22134,-13.850666 0,-9.8933331 -4.44267,-13.9626663 -9.22134,-13.9626663 z"
       style="font-size:37.33333206px"
       id="path3981"
       inkscape:connector-curvature="0" /></g></g></svg>